<?xml version="1.0" encoding="UTF-8" standalone="no"?>
<!-- Created with Inkscape (http://www.inkscape.org/) -->

<svg
   xmlns:dc="http://purl.org/dc/elements/1.1/"
   xmlns:cc="http://creativecommons.org/ns#"
   xmlns:rdf="http://www.w3.org/1999/02/22-rdf-syntax-ns#"
   xmlns:svg="http://www.w3.org/2000/svg"
   xmlns="http://www.w3.org/2000/svg"
   xmlns:sodipodi="http://sodipodi.sourceforge.net/DTD/sodipodi-0.dtd"
   xmlns:inkscape="http://www.inkscape.org/namespaces/inkscape"
   width="256"
   height="256"
   id="svg2"
   version="1.1"
   inkscape:version="0.48.4 r9939"
   sodipodi:docname="qtResistors.svg">
  <defs
     id="defs4" />
  <sodipodi:namedview
     id="base"
     pagecolor="#ffffff"
     bordercolor="#666666"
     borderopacity="1.0"
     inkscape:pageopacity="0.0"
     inkscape:pageshadow="2"
     inkscape:zoom="0.35"
     inkscape:cx="-127.37633"
     inkscape:cy="-108.30128"
     inkscape:document-units="px"
     inkscape:current-layer="layer1"
     showgrid="false"
     inkscape:window-width="1306"
     inkscape:window-height="740"
     inkscape:window-x="56"
     inkscape:window-y="-3"
     inkscape:window-maximized="1"
     fit-margin-top="2.7755576e-17"
     fit-margin-left="0"
     fit-margin-right="0"
     fit-margin-bottom="0" />
  <metadata
     id="metadata7">
    <rdf:RDF>
      <cc:Work
         rdf:about="">
        <dc:format>image/svg+xml</dc:format>
        <dc:type
           rdf:resource="http://purl.org/dc/dcmitype/StillImage" />
      </cc:Work>
    </rdf:RDF>
  </metadata>
  <g
     inkscape:label="Layer 1"
     inkscape:groupmode="layer"
     id="layer1"
     transform="translate(-252.15368,-124.20851)">
    <path
       style="fill:#000000"
       d="m 253.57141,378.79078 c -3.39502,-3.39502 -1.93279,-5.45393 18.37487,-25.87292 l 19.94631,-20.05565 -9.29415,-9.53152 c -8.16374,-8.37224 -9.44922,-10.1779 -10.56907,-14.84599 -1.49928,-6.24967 -0.82852,-12.6564 1.87151,-17.87569 1.06606,-2.06074 9.73697,-11.45907 19.26869,-20.88517 16.68617,-16.50127 17.53402,-17.18111 22.80773,-18.28819 3.01252,-0.63241 7.28752,-2.22796 9.5,-3.54568 2.21247,-1.31772 13.58418,-11.99087 25.27045,-23.7181 l 21.24777,-21.32224 4.5393,-10.49371 4.53931,-10.49371 16.71293,-16.82007 c 9.1921,-9.25104 18.39898,-17.69695 20.45972,-18.76869 5.20871,-2.70893 11.61623,-3.38348 17.87569,-1.88185 4.66809,1.11985 6.47375,2.40533 14.84599,10.56907 l 9.53152,9.29415 20.05565,-19.94631 c 20.41899,-20.30766 22.4779,-21.76989 25.87292,-18.37487 3.39502,3.39502 1.93279,5.45393 -18.37487,25.87292 l -19.94631,20.05565 9.29415,9.53152 c 8.16374,8.37224 9.44922,10.1779 10.56907,14.84599 1.49928,6.24967 0.82852,12.6564 -1.87151,17.87569 -1.06606,2.06074 -9.73697,11.45232 -19.26869,20.87018 -16.56193,16.36408 -17.5743,17.17831 -22.83041,18.36205 -3.025,0.68126 -7.3,2.2799 -9.5,3.55252 -5.01032,2.89829 -48.69715,46.8223 -50.88582,51.16208 -0.88762,1.76002 -2.11416,5.58502 -2.72565,8.5 -1.05899,5.04827 -1.9257,6.123 -18.25016,22.63038 -9.4261,9.53172 -18.82443,18.20263 -20.88517,19.26869 -5.21929,2.70003 -11.62602,3.37079 -17.87569,1.87151 -4.66809,-1.11985 -6.47375,-2.40533 -14.84599,-10.56907 l -9.53152,-9.29415 -20.05565,19.94631 c -20.41899,20.30766 -22.4779,21.76989 -25.87292,18.37487 z m 84.42857,-30.47996 c 1.375,-0.99149 5.98407,-5.32954 10.24237,-9.64011 l 7.74237,-7.83739 -27.2959,-27.28237 -27.2959,-27.28236 -9.52538,9.81636 c -15.57486,16.05065 -15.55215,16.13639 11.40393,43.05732 12.71257,12.69598 21.41385,20.6145 23.26753,21.17436 3.71378,1.12167 8.21668,0.33361 11.46098,-2.00581 z m 29.89641,-29.48341 c 1.70697,-1.94413 3.10359,-4.40225 3.10359,-5.46248 0,-4.49526 4.39321,-13.16278 10.14204,-20.0096 l 6.09088,-7.25418 -20.48593,-20.48593 -20.48593,-20.48593 -7.25418,6.09088 c -6.8756,5.773 -15.51676,10.14204 -20.05908,10.14204 -1.08744,0 -3.65806,1.55549 -5.71248,3.45664 l -3.73532,3.45664 26.99306,27.04336 c 14.84618,14.87385 27.28706,27.04336 27.6464,27.04336 0.35935,0 2.04997,-1.59066 3.75695,-3.5348 z m 37.86739,-50.72819 10.22807,-10.263 -20.75924,-20.74158 -20.75924,-20.74158 -10.47318,10.50894 -10.47318,10.50895 20.47734,20.49563 c 11.26253,11.2726 20.71449,20.49563 21.00435,20.49563 0.28986,0 5.12964,-4.61835 10.75508,-10.26299 z m 22.55813,-20.16047 c 2.29794,-1.3329 6.84637,-3.11128 10.10762,-3.95195 5.23818,-1.35028 6.84236,-2.43596 13.7584,-9.31144 l 7.82886,-7.78294 -27.24457,-27.25809 -27.24457,-27.25808 -8.11138,8.06924 c -7.14821,7.11107 -8.48943,9.03982 -11.29514,16.24298 -1.75107,4.49556 -3.6084,8.84874 -4.12741,9.67374 -0.73647,1.17068 3.71431,6.16537 20.27258,22.75 11.66893,11.6875 21.36503,21.25 21.54689,21.25 0.18186,0 2.21078,-1.09056 4.50872,-2.42346 z m 44.95246,-34.53683 c 4.91097,-5.46218 6.10852,-9.07743 4.69478,-14.17292 -1.30677,-4.70992 -40.05005,-43.45601 -44.82108,-44.82432 -5.14704,-1.47615 -8.85879,-0.18453 -14.48268,5.03968 l -5.16541,4.79832 26.99305,27.05977 c 14.84619,14.88287 27.29198,27.05976 27.65734,27.05976 0.36535,0 2.67115,-2.23213 5.124,-4.96029 z"
       id="path3069"
       inkscape:connector-curvature="0" />
  </g>
</svg>
