<?xml version="1.0" encoding="UTF-8" standalone="no"?>
<!-- Created with Inkscape (http://www.inkscape.org/) -->

<svg
   xmlns:dc="http://purl.org/dc/elements/1.1/"
   xmlns:cc="http://creativecommons.org/ns#"
   xmlns:rdf="http://www.w3.org/1999/02/22-rdf-syntax-ns#"
   xmlns:svg="http://www.w3.org/2000/svg"
   xmlns="http://www.w3.org/2000/svg"
   xmlns:sodipodi="http://sodipodi.sourceforge.net/DTD/sodipodi-0.dtd"
   xmlns:inkscape="http://www.inkscape.org/namespaces/inkscape"
   width="256"
   height="256"
   id="svg2"
   version="1.1"
   inkscape:version="0.48.4 r9939"
   sodipodi:docname="qtResistors.svg">
  <defs
     id="defs4">
    <filter
       inkscape:collect="always"
       id="filter3953"
       x="-0.24000001"
       width="1.48"
       y="-0.23999999"
       height="1.48">
      <feGaussianBlur
         inkscape:collect="always"
         stdDeviation="28.195295"
         id="feGaussianBlur3955" />
    </filter>
  </defs>
  <sodipodi:namedview
     id="base"
     pagecolor="#ffffff"
     bordercolor="#666666"
     borderopacity="1.0"
     inkscape:pageopacity="0.0"
     inkscape:pageshadow="2"
     inkscape:zoom="1.85"
     inkscape:cx="-160.18979"
     inkscape:cy="124.77707"
     inkscape:document-units="px"
     inkscape:current-layer="g3849"
     showgrid="false"
     inkscape:window-width="1306"
     inkscape:window-height="740"
     inkscape:window-x="56"
     inkscape:window-y="-3"
     inkscape:window-maximized="1"
     fit-margin-top="2.7755576e-17"
     fit-margin-left="0"
     fit-margin-right="0"
     fit-margin-bottom="0" />
  <metadata
     id="metadata7">
    <rdf:RDF>
      <cc:Work
         rdf:about="">
        <dc:format>image/svg+xml</dc:format>
        <dc:type
           rdf:resource="http://purl.org/dc/dcmitype/StillImage" />
        <dc:title />
      </cc:Work>
    </rdf:RDF>
  </metadata>
  <g
     style="display:inline"
     transform="translate(-252.15368,-124.20851)"
     id="g3849"
     inkscape:groupmode="layer"
     inkscape:label="blurry background"
     sodipodi:insensitive="true">
    <path
       inkscape:connector-curvature="0"
       id="path3851"
       d="m 240.9244,391.45167 c -4.2947,-4.29471 -2.73548,-6.60874 19.59378,-29.07881 l 21.93192,-22.07023 -11.77668,-12.03778 c -10.34434,-10.57369 -12.01339,-12.81493 -13.72273,-18.42734 -2.2885,-7.51393 -2.02388,-15.03455 0.73832,-20.9836 1.0906,-2.34888 10.56859,-12.74705 21.0622,-23.10705 18.37004,-18.13614 19.31653,-18.87011 25.46136,-19.74416 3.51012,-0.49929 8.43368,-2.03333 10.94123,-3.409 2.50753,-1.37568 15.07404,-13.05851 27.92557,-25.96184 l 23.36641,-23.4606 4.50199,-12.03432 4.50201,-12.03431 18.37541,-18.5109 c 10.10639,-10.18106 20.29679,-19.40872 22.6452,-20.50604 5.93582,-2.7736 13.45706,-3.04262 20.98275,-0.75055 5.61242,1.70934 7.85365,3.37839 18.42734,13.72273 l 12.03779,11.77668 22.07023,-21.93193 c 22.47008,-22.32922 24.7841,-23.88847 29.0788,-19.59377 4.29469,4.29469 2.73547,6.60874 -19.59377,29.0788 l -21.93186,22.0703 11.77668,12.03779 c 10.34434,10.57369 12.01339,12.81493 13.72272,18.42733 2.2885,7.51394 2.02389,15.03455 -0.73832,20.98361 -1.0906,2.34888 -10.56914,12.73907 -21.06343,23.08932 -18.23444,17.98417 -19.3644,18.86347 -25.48209,19.82962 -3.52085,0.55603 -8.44416,2.09373 -10.94067,3.41709 -5.68559,3.01388 -53.72152,51.34986 -55.9516,56.30109 -0.90441,2.008 -2.03923,6.42987 -2.52184,9.82638 -0.83577,5.88222 -1.77199,7.08158 -19.71381,25.25479 -10.36004,10.49355 -20.75816,19.9716 -23.10704,21.06219 -5.94906,2.76221 -13.46967,3.02682 -20.98361,0.73832 -5.61241,-1.70933 -7.85364,-3.37838 -18.42733,-13.72272 L 292.07354,349.92608 270.00331,371.858 c -22.47008,22.32923 -24.7841,23.88848 -29.0788,19.59378 z m 97.32219,-29.07719 c 1.54414,-1.05901 6.63649,-5.8085 11.3163,-10.55443 l 8.50876,-8.62898 -34.52818,-34.51333 -34.52818,-34.51333 -10.45389,10.822 c -17.09311,17.69497 -17.05917,17.79823 17.03737,51.85612 16.08002,16.06178 27.02257,26.14328 29.26073,26.95824 4.48409,1.63276 9.74376,1.07238 13.38713,-1.42634 z m 32.92013,-32.39768 c 1.85811,-2.1581 3.30681,-4.94962 3.21934,-6.20334 -0.37087,-5.31565 4.10904,-15.20255 10.34216,-22.82463 l 6.604,-8.07558 -25.9147,-25.9147 -25.91469,-25.91469 -8.07558,6.604 c -7.65412,6.25933 -17.51186,10.71281 -22.88314,10.33808 -1.2859,-0.0897 -4.19734,1.53757 -6.46984,3.61618 l -4.13184,3.77933 34.15039,34.20569 c 18.78271,18.81311 34.49801,34.22995 34.92295,34.25959 0.42492,0.0297 2.29284,-1.71184 4.15096,-3.86994 z m 40.5931,-56.86203 11.24797,-11.29223 -26.25897,-26.23958 -26.25895,-26.23958 -11.51755,11.5628 -11.51754,11.56279 25.90538,25.92545 c 14.24781,14.25913 26.18577,25.94503 26.52853,25.96895 0.34276,0.0239 5.68478,-5.03801 11.87118,-11.2487 z m 25.01176,-21.97872 c 2.60735,-1.38656 7.83916,-3.11425 11.62623,-3.83929 6.08274,-1.16456 7.89012,-2.31602 15.50112,-9.87572 l 8.61554,-8.55742 -34.46551,-34.48035 -34.4655,-34.48036 -8.926,8.8727 c -7.86608,7.81912 -9.29296,9.9892 -12.01645,18.27547 -1.69977,5.17152 -3.53693,10.16593 -4.08259,11.09867 -0.77429,1.32357 4.90082,7.597 25.8492,28.57437 14.76277,14.78313 27.0173,26.89072 27.23231,26.90574 0.21506,0.015 2.52429,-1.1072 5.13164,-2.49377 z m 50.307,-37.13121 c 5.35659,-6.05387 6.47443,-10.23011 4.38231,-16.37216 -1.93382,-5.67729 -50.94431,-54.69086 -56.69859,-56.70283 -6.20817,-2.17018 -10.49075,-0.94907 -16.71,4.76459 l -5.71224,5.24788 34.1517,34.2251 c 18.78348,18.82378 34.50519,34.24975 34.93724,34.2799 0.43203,0.0301 2.97448,-2.41912 5.64991,-5.44281 z"
       style="fill:#ffffff;fill-opacity:1;stroke-width:0.40000001;stroke-miterlimit:4;stroke-dasharray:none;filter:url(#filter3953)"
       inkscape:export-xdpi="90"
       inkscape:export-ydpi="90" />
  </g>
  <g
     inkscape:label="Resistor"
     inkscape:groupmode="layer"
     id="layer1"
     transform="translate(-252.15368,-124.20851)"
     sodipodi:insensitive="true"
     style="display:inline">
    <path
       style="fill:#000000"
       d="m 253.57141,378.79078 c -3.39502,-3.39502 -1.93279,-5.45393 18.37487,-25.87292 l 19.94631,-20.05565 -9.29415,-9.53152 c -8.16374,-8.37224 -9.44922,-10.1779 -10.56907,-14.84599 -1.49928,-6.24967 -0.82852,-12.6564 1.87151,-17.87569 1.06606,-2.06074 9.73697,-11.45907 19.26869,-20.88517 16.68617,-16.50127 17.53402,-17.18111 22.80773,-18.28819 3.01252,-0.63241 7.28752,-2.22796 9.5,-3.54568 2.21247,-1.31772 13.58418,-11.99087 25.27045,-23.7181 l 21.24777,-21.32224 4.5393,-10.49371 4.53931,-10.49371 16.71293,-16.82007 c 9.1921,-9.25104 18.39898,-17.69695 20.45972,-18.76869 5.20871,-2.70893 11.61623,-3.38348 17.87569,-1.88185 4.66809,1.11985 6.47375,2.40533 14.84599,10.56907 l 9.53152,9.29415 20.05565,-19.94631 c 20.41899,-20.30766 22.4779,-21.76989 25.87292,-18.37487 3.39502,3.39502 1.93279,5.45393 -18.37487,25.87292 l -19.94631,20.05565 9.29415,9.53152 c 8.16374,8.37224 9.44922,10.1779 10.56907,14.84599 1.49928,6.24967 0.82852,12.6564 -1.87151,17.87569 -1.06606,2.06074 -9.73697,11.45232 -19.26869,20.87018 -16.56193,16.36408 -17.5743,17.17831 -22.83041,18.36205 -3.025,0.68126 -7.3,2.2799 -9.5,3.55252 -5.01032,2.89829 -48.69715,46.8223 -50.88582,51.16208 -0.88762,1.76002 -2.11416,5.58502 -2.72565,8.5 -1.05899,5.04827 -1.9257,6.123 -18.25016,22.63038 -9.4261,9.53172 -18.82443,18.20263 -20.88517,19.26869 -5.21929,2.70003 -11.62602,3.37079 -17.87569,1.87151 -4.66809,-1.11985 -6.47375,-2.40533 -14.84599,-10.56907 l -9.53152,-9.29415 -20.05565,19.94631 c -20.41899,20.30766 -22.4779,21.76989 -25.87292,18.37487 z m 84.42857,-30.47996 c 1.375,-0.99149 5.98407,-5.32954 10.24237,-9.64011 l 7.74237,-7.83739 -27.2959,-27.28237 -27.2959,-27.28236 -9.52538,9.81636 c -15.57486,16.05065 -15.55215,16.13639 11.40393,43.05732 12.71257,12.69598 21.41385,20.6145 23.26753,21.17436 3.71378,1.12167 8.21668,0.33361 11.46098,-2.00581 z m 29.89641,-29.48341 c 1.70697,-1.94413 3.10359,-4.40225 3.10359,-5.46248 0,-4.49526 4.39321,-13.16278 10.14204,-20.0096 l 6.09088,-7.25418 -20.48593,-20.48593 -20.48593,-20.48593 -7.25418,6.09088 c -6.8756,5.773 -15.51676,10.14204 -20.05908,10.14204 -1.08744,0 -3.65806,1.55549 -5.71248,3.45664 l -3.73532,3.45664 26.99306,27.04336 c 14.84618,14.87385 27.28706,27.04336 27.6464,27.04336 0.35935,0 2.04997,-1.59066 3.75695,-3.5348 z m 37.86739,-50.72819 10.22807,-10.263 -20.75924,-20.74158 -20.75924,-20.74158 -10.47318,10.50894 -10.47318,10.50895 20.47734,20.49563 c 11.26253,11.2726 20.71449,20.49563 21.00435,20.49563 0.28986,0 5.12964,-4.61835 10.75508,-10.26299 z m 22.55813,-20.16047 c 2.29794,-1.3329 6.84637,-3.11128 10.10762,-3.95195 5.23818,-1.35028 6.84236,-2.43596 13.7584,-9.31144 l 7.82886,-7.78294 -27.24457,-27.25809 -27.24457,-27.25808 -8.11138,8.06924 c -7.14821,7.11107 -8.48943,9.03982 -11.29514,16.24298 -1.75107,4.49556 -3.6084,8.84874 -4.12741,9.67374 -0.73647,1.17068 3.71431,6.16537 20.27258,22.75 11.66893,11.6875 21.36503,21.25 21.54689,21.25 0.18186,0 2.21078,-1.09056 4.50872,-2.42346 z m 44.95246,-34.53683 c 4.91097,-5.46218 6.10852,-9.07743 4.69478,-14.17292 -1.30677,-4.70992 -40.05005,-43.45601 -44.82108,-44.82432 -5.14704,-1.47615 -8.85879,-0.18453 -14.48268,5.03968 l -5.16541,4.79832 26.99305,27.05977 c 14.84619,14.88287 27.29198,27.05976 27.65734,27.05976 0.36535,0 2.67115,-2.23213 5.124,-4.96029 z"
       id="path3069"
       inkscape:connector-curvature="0" />
  </g>
</svg>
